# xmcd CD database file
#
# Track frame offsets:
#	150
#	13497
#	25540
#	38772
#	49422
#	61602
#	75050
#	89862
#	106030
#	120332
#	135135
#	150920
#	163497
#	176090
#	189957
#	203355
#	217752
#	225642
#	240085
#	249310
#
# Disc length: 3513 seconds
#
# Revision: 0
# Processed by: cddbd v1.5PL3 Copyright (c) Steve Scherf et al.
# Submitted via: CDex 1.50
#
DISCID=e00db714
DTITLE=Dolly Parton - Premium Masters - Here I Come Again
DYEAR=1900
DGENRE=Country
TTITLE0=Joshua
TTITLE1=Jolene
TTITLE2=I Will Always Love
TTITLE3=Love Is Like A Butterfly
TTITLE4=The Bargain Store
TTITLE5=Here You Come Again
TTITLE6=It's All Wrong, But It's All Right
TTITLE7=Heartbreaker
TTITLE8=I Really Got The Feeling
TTITLE9=You're The Only One
TTITLE10=My Blue Ridge Mountain Boy
TTITLE11=In The Good Old Days
TTITLE12=In The Ghetto
TTITLE13=Daddy Come And Get Me
TTITLE14=The Carroll County Accident
TTITLE15=Gypsy Joe And Me
TTITLE16=Little Bird
TTITLE17=Lonely Comin' Down
TTITLE18=Washday Blues
TTITLE19=Mule Skinner Blues
EXTD=
EXTT0=
EXTT1=
EXTT2=
EXTT3=
EXTT4=
EXTT5=
EXTT6=
EXTT7=
EXTT8=
EXTT9=
EXTT10=
EXTT11=
EXTT12=
EXTT13=
EXTT14=
EXTT15=
EXTT16=
EXTT17=
EXTT18=
EXTT19=
PLAYORDER=
